<mxfile host="Electron" modified="2024-05-24T14:36:49.065Z" agent="Mozilla/5.0 (Windows NT 10.0; Win64; x64) AppleWebKit/537.36 (KHTML, like Gecko) draw.io/24.1.0 Chrome/120.0.6099.109 Electron/28.1.0 Safari/537.36" etag="XC5MnppQSMPU9kyNkuck" version="24.1.0" type="device">
  <diagram name="第 1 页" id="FByG7W6bhL_o-F0UXBpS">
    <mxGraphModel dx="1595" dy="1097" grid="0" gridSize="10" guides="1" tooltips="1" connect="1" arrows="1" fold="1" page="0" pageScale="1" pageWidth="827" pageHeight="1169" background="#FFFFFF" math="0" shadow="0">
      <root>
        <mxCell id="0" />
        <mxCell id="1" parent="0" />
        <mxCell id="s5gLZn5pLBX4iGZIlQmL-1" value="&lt;font color=&quot;#000000&quot;&gt;&lt;b&gt;继电器&lt;/b&gt;&lt;/font&gt;" style="rounded=1;whiteSpace=wrap;html=1;fillColor=#cdeb8b;strokeColor=#36393d;" vertex="1" parent="1">
          <mxGeometry x="101" y="322" width="280" height="139" as="geometry" />
        </mxCell>
        <mxCell id="s5gLZn5pLBX4iGZIlQmL-2" value="&lt;font color=&quot;#000000&quot;&gt;&lt;b&gt;DC+&lt;/b&gt;&lt;/font&gt;" style="rounded=0;whiteSpace=wrap;html=1;fillColor=#f8cecc;strokeColor=#b85450;align=center;verticalAlign=middle;fontFamily=Helvetica;fontSize=12;fontColor=#000000;fontStyle=1;" vertex="1" parent="1">
          <mxGeometry x="101" y="338" width="69" height="29" as="geometry" />
        </mxCell>
        <mxCell id="s5gLZn5pLBX4iGZIlQmL-3" value="&lt;font color=&quot;#000000&quot;&gt;&lt;b&gt;DC-&lt;/b&gt;&lt;/font&gt;" style="rounded=0;whiteSpace=wrap;html=1;fillColor=#f8cecc;strokeColor=#b85450;align=center;verticalAlign=middle;fontFamily=Helvetica;fontSize=12;fontColor=#000000;fontStyle=1;" vertex="1" parent="1">
          <mxGeometry x="101" y="377" width="69" height="29" as="geometry" />
        </mxCell>
        <mxCell id="s5gLZn5pLBX4iGZIlQmL-4" value="&lt;font color=&quot;#000000&quot;&gt;&lt;b&gt;IN&lt;/b&gt;&lt;/font&gt;" style="rounded=0;whiteSpace=wrap;html=1;fillColor=#d5e8d4;strokeColor=#82b366;" vertex="1" parent="1">
          <mxGeometry x="101" y="417" width="69" height="29" as="geometry" />
        </mxCell>
        <mxCell id="s5gLZn5pLBX4iGZIlQmL-6" value="&lt;font color=&quot;#000000&quot;&gt;&lt;b&gt;NC&lt;/b&gt;&lt;/font&gt;" style="rounded=0;whiteSpace=wrap;html=1;fillColor=#d5e8d4;strokeColor=#82b366;" vertex="1" parent="1">
          <mxGeometry x="312" y="338" width="69" height="29" as="geometry" />
        </mxCell>
        <mxCell id="s5gLZn5pLBX4iGZIlQmL-7" value="&lt;font color=&quot;#000000&quot;&gt;&lt;b&gt;COM&lt;/b&gt;&lt;/font&gt;" style="rounded=0;whiteSpace=wrap;html=1;fillColor=#d5e8d4;strokeColor=#82b366;" vertex="1" parent="1">
          <mxGeometry x="312" y="377" width="69" height="29" as="geometry" />
        </mxCell>
        <mxCell id="s5gLZn5pLBX4iGZIlQmL-8" value="&lt;font color=&quot;#000000&quot;&gt;&lt;b&gt;NO&lt;/b&gt;&lt;/font&gt;" style="rounded=0;whiteSpace=wrap;html=1;fillColor=#d5e8d4;strokeColor=#82b366;" vertex="1" parent="1">
          <mxGeometry x="312" y="417" width="69" height="29" as="geometry" />
        </mxCell>
        <mxCell id="s5gLZn5pLBX4iGZIlQmL-9" value="&lt;font color=&quot;#000000&quot;&gt;&lt;b&gt;气泵&lt;/b&gt;&lt;/font&gt;" style="rounded=1;whiteSpace=wrap;html=1;fillColor=#cdeb8b;strokeColor=#36393d;" vertex="1" parent="1">
          <mxGeometry x="612" y="279" width="218" height="119" as="geometry" />
        </mxCell>
        <mxCell id="s5gLZn5pLBX4iGZIlQmL-10" value="&lt;font color=&quot;#000000&quot;&gt;&lt;b&gt;电磁阀&lt;/b&gt;&lt;/font&gt;" style="rounded=1;whiteSpace=wrap;html=1;fillColor=#cdeb8b;strokeColor=#36393d;align=center;verticalAlign=middle;fontFamily=Helvetica;fontSize=12;fontColor=default;" vertex="1" parent="1">
          <mxGeometry x="612" y="466" width="226" height="114" as="geometry" />
        </mxCell>
        <mxCell id="s5gLZn5pLBX4iGZIlQmL-11" value="&lt;font color=&quot;#000000&quot;&gt;&lt;b&gt;出气口&lt;/b&gt;&lt;/font&gt;" style="rounded=0;whiteSpace=wrap;html=1;fillColor=#cce5ff;strokeColor=#36393d;" vertex="1" parent="1">
          <mxGeometry x="761" y="292" width="69" height="29" as="geometry" />
        </mxCell>
        <mxCell id="s5gLZn5pLBX4iGZIlQmL-12" value="&lt;font color=&quot;#000000&quot;&gt;&lt;b&gt;进气口&lt;/b&gt;&lt;/font&gt;" style="rounded=0;whiteSpace=wrap;html=1;fillColor=#cce5ff;strokeColor=#36393d;" vertex="1" parent="1">
          <mxGeometry x="761" y="345" width="69" height="29" as="geometry" />
        </mxCell>
        <mxCell id="s5gLZn5pLBX4iGZIlQmL-13" value="&lt;font color=&quot;#000000&quot;&gt;&lt;b&gt;2&lt;/b&gt;&lt;/font&gt;" style="rounded=0;whiteSpace=wrap;html=1;fillColor=#cce5ff;strokeColor=#36393d;" vertex="1" parent="1">
          <mxGeometry x="769" y="489" width="69" height="29" as="geometry" />
        </mxCell>
        <mxCell id="s5gLZn5pLBX4iGZIlQmL-14" value="&lt;font color=&quot;#000000&quot;&gt;&lt;b&gt;3&lt;/b&gt;&lt;/font&gt;" style="rounded=0;whiteSpace=wrap;html=1;fillColor=#cce5ff;strokeColor=#36393d;" vertex="1" parent="1">
          <mxGeometry x="769" y="539" width="69" height="29" as="geometry" />
        </mxCell>
        <mxCell id="s5gLZn5pLBX4iGZIlQmL-15" value="&lt;font color=&quot;#000000&quot;&gt;&lt;b&gt;1&lt;/b&gt;&lt;/font&gt;" style="rounded=0;whiteSpace=wrap;html=1;fillColor=#cce5ff;strokeColor=#36393d;" vertex="1" parent="1">
          <mxGeometry x="612" y="532" width="69" height="29" as="geometry" />
        </mxCell>
        <mxCell id="s5gLZn5pLBX4iGZIlQmL-44" style="edgeStyle=orthogonalEdgeStyle;rounded=0;orthogonalLoop=1;jettySize=auto;html=1;exitX=0;exitY=0.75;exitDx=0;exitDy=0;entryX=0;entryY=0.5;entryDx=0;entryDy=0;strokeColor=#ff0000;strokeWidth=3;align=center;verticalAlign=middle;fontFamily=Helvetica;fontSize=11;fontColor=default;labelBackgroundColor=default;endArrow=classic;" edge="1" parent="1" source="s5gLZn5pLBX4iGZIlQmL-17" target="s5gLZn5pLBX4iGZIlQmL-18">
          <mxGeometry relative="1" as="geometry" />
        </mxCell>
        <mxCell id="s5gLZn5pLBX4iGZIlQmL-17" value="输入24V" style="rounded=0;whiteSpace=wrap;html=1;fillColor=#f8cecc;strokeColor=#b85450;fontStyle=1;fontColor=#000000;" vertex="1" parent="1">
          <mxGeometry x="612" y="323" width="57" height="30" as="geometry" />
        </mxCell>
        <mxCell id="s5gLZn5pLBX4iGZIlQmL-45" style="edgeStyle=orthogonalEdgeStyle;rounded=0;orthogonalLoop=1;jettySize=auto;html=1;exitX=0;exitY=0.75;exitDx=0;exitDy=0;entryX=1;entryY=0.5;entryDx=0;entryDy=0;strokeColor=#6D1F00;strokeWidth=3;align=center;verticalAlign=middle;fontFamily=Helvetica;fontSize=11;fontColor=default;labelBackgroundColor=default;endArrow=classic;fillColor=#a0522d;" edge="1" parent="1" source="s5gLZn5pLBX4iGZIlQmL-18" target="s5gLZn5pLBX4iGZIlQmL-7">
          <mxGeometry relative="1" as="geometry" />
        </mxCell>
        <mxCell id="s5gLZn5pLBX4iGZIlQmL-18" value="输入24V" style="rounded=0;whiteSpace=wrap;html=1;fillColor=#f8cecc;strokeColor=#b85450;fontStyle=1;fontColor=#000000;" vertex="1" parent="1">
          <mxGeometry x="612" y="489" width="57" height="30" as="geometry" />
        </mxCell>
        <mxCell id="s5gLZn5pLBX4iGZIlQmL-20" value="24V输入" style="rounded=0;whiteSpace=wrap;html=1;fillColor=#f8cecc;strokeColor=#b85450;fontStyle=1;fontColor=#000000;" vertex="1" parent="1">
          <mxGeometry x="-321" y="213.5" width="88.5" height="356" as="geometry" />
        </mxCell>
        <mxCell id="s5gLZn5pLBX4iGZIlQmL-23" style="edgeStyle=orthogonalEdgeStyle;rounded=0;orthogonalLoop=1;jettySize=auto;html=1;exitX=1;exitY=0.25;exitDx=0;exitDy=0;entryX=0;entryY=0.5;entryDx=0;entryDy=0;strokeColor=#ff0000;strokeWidth=3;align=center;verticalAlign=middle;fontFamily=Helvetica;fontSize=11;fontColor=default;labelBackgroundColor=default;endArrow=classic;" edge="1" parent="1" source="s5gLZn5pLBX4iGZIlQmL-21" target="s5gLZn5pLBX4iGZIlQmL-2">
          <mxGeometry relative="1" as="geometry" />
        </mxCell>
        <mxCell id="s5gLZn5pLBX4iGZIlQmL-21" value="+" style="rounded=0;whiteSpace=wrap;html=1;fillColor=#e51400;fontColor=#ffffff;strokeColor=#B20000;" vertex="1" parent="1">
          <mxGeometry x="-266.25" y="230" width="33.75" height="75" as="geometry" />
        </mxCell>
        <mxCell id="s5gLZn5pLBX4iGZIlQmL-24" style="edgeStyle=orthogonalEdgeStyle;rounded=0;orthogonalLoop=1;jettySize=auto;html=1;exitX=1;exitY=0.5;exitDx=0;exitDy=0;entryX=0;entryY=0.25;entryDx=0;entryDy=0;strokeColor=#6D1F00;strokeWidth=3;align=center;verticalAlign=middle;fontFamily=Helvetica;fontSize=11;fontColor=default;labelBackgroundColor=default;endArrow=classic;fillColor=#a0522d;" edge="1" parent="1" source="s5gLZn5pLBX4iGZIlQmL-22" target="s5gLZn5pLBX4iGZIlQmL-3">
          <mxGeometry relative="1" as="geometry" />
        </mxCell>
        <mxCell id="s5gLZn5pLBX4iGZIlQmL-22" value="-" style="rounded=0;whiteSpace=wrap;html=1;fillColor=#a0522d;fontColor=#ffffff;strokeColor=#6D1F00;" vertex="1" parent="1">
          <mxGeometry x="-266.25" y="456" width="33.75" height="75" as="geometry" />
        </mxCell>
        <mxCell id="s5gLZn5pLBX4iGZIlQmL-25" value="&lt;p style=&quot;line-height: 130%;&quot;&gt;&lt;font style=&quot;font-size: 25px;&quot;&gt;+&amp;nbsp;&lt;/font&gt;&lt;font style=&quot;font-size: 21px;&quot;&gt;&amp;nbsp;&amp;nbsp;&lt;/font&gt;&lt;/p&gt;" style="shape=or;whiteSpace=wrap;html=1;rotation=90;fillColor=#f0a30a;fontColor=#000000;strokeColor=#BD7000;" vertex="1" parent="1">
          <mxGeometry x="652" y="317.09" width="57.12" height="42.81" as="geometry" />
        </mxCell>
        <mxCell id="s5gLZn5pLBX4iGZIlQmL-26" value="&lt;p style=&quot;line-height: 130%;&quot;&gt;&lt;font style=&quot;font-size: 25px;&quot;&gt;+&amp;nbsp;&lt;/font&gt;&lt;font style=&quot;font-size: 21px;&quot;&gt;&amp;nbsp;&amp;nbsp;&lt;/font&gt;&lt;/p&gt;" style="shape=or;whiteSpace=wrap;html=1;rotation=90;fillColor=#f0a30a;fontColor=#000000;strokeColor=#BD7000;" vertex="1" parent="1">
          <mxGeometry x="649" y="482.09999999999997" width="57.12" height="42.81" as="geometry" />
        </mxCell>
        <mxCell id="s5gLZn5pLBX4iGZIlQmL-36" value="24V输入" style="rounded=0;whiteSpace=wrap;html=1;fillColor=#f8cecc;strokeColor=#b85450;fontStyle=1;fontColor=#000000;" vertex="1" parent="1">
          <mxGeometry x="631" y="-23" width="88.5" height="232" as="geometry" />
        </mxCell>
        <mxCell id="s5gLZn5pLBX4iGZIlQmL-40" style="edgeStyle=orthogonalEdgeStyle;rounded=0;orthogonalLoop=1;jettySize=auto;html=1;exitX=0;exitY=0.25;exitDx=0;exitDy=0;entryX=1;entryY=0.25;entryDx=0;entryDy=0;strokeColor=#ff0000;strokeWidth=3;align=center;verticalAlign=middle;fontFamily=Helvetica;fontSize=11;fontColor=default;labelBackgroundColor=default;endArrow=classic;" edge="1" parent="1" source="s5gLZn5pLBX4iGZIlQmL-37" target="s5gLZn5pLBX4iGZIlQmL-6">
          <mxGeometry relative="1" as="geometry" />
        </mxCell>
        <mxCell id="s5gLZn5pLBX4iGZIlQmL-37" value="+" style="rounded=0;whiteSpace=wrap;html=1;fillColor=#e51400;fontColor=#ffffff;strokeColor=#B20000;" vertex="1" parent="1">
          <mxGeometry x="631" y="8" width="33.75" height="52" as="geometry" />
        </mxCell>
        <mxCell id="s5gLZn5pLBX4iGZIlQmL-43" style="edgeStyle=orthogonalEdgeStyle;rounded=0;orthogonalLoop=1;jettySize=auto;html=1;exitX=0;exitY=0.5;exitDx=0;exitDy=0;entryX=0;entryY=0.25;entryDx=0;entryDy=0;strokeColor=#6D1F00;strokeWidth=3;align=center;verticalAlign=middle;fontFamily=Helvetica;fontSize=11;fontColor=default;labelBackgroundColor=default;endArrow=classic;fillColor=#a0522d;" edge="1" parent="1" source="s5gLZn5pLBX4iGZIlQmL-38" target="s5gLZn5pLBX4iGZIlQmL-17">
          <mxGeometry relative="1" as="geometry" />
        </mxCell>
        <mxCell id="s5gLZn5pLBX4iGZIlQmL-38" value="-" style="rounded=0;whiteSpace=wrap;html=1;fillColor=#a0522d;fontColor=#ffffff;strokeColor=#6D1F00;" vertex="1" parent="1">
          <mxGeometry x="632.25" y="136.5" width="33.75" height="47.5" as="geometry" />
        </mxCell>
      </root>
    </mxGraphModel>
  </diagram>
</mxfile>
